<svg width="180" height="184" viewBox="0 0 180 184" fill="none" xmlns="http://www.w3.org/2000/svg">
<rect width="180" height="183.375" rx="5" fill="#131515"/>
<line x1="30.6356" y1="153.859" x2="30.6356" y2="42.084" stroke="white" stroke-width="3.5"/>
<line x1="70.61" y1="166.598" x2="70.61" y2="58.1298" stroke="white" stroke-width="3.5"/>
<line y1="-1.75" x2="44.1226" y2="-1.75" transform="matrix(-0.942374 -0.334561 0.323659 -0.946174 70.47 163.387)" stroke="white" stroke-width="3.5"/>
<line y1="-1.75" x2="42.723" y2="-1.75" transform="matrix(-0.94239 -0.334516 0.323615 -0.946189 72.3309 55.6484)" stroke="white" stroke-width="3.5"/>
<line y1="-1.75" x2="44.1226" y2="-1.75" transform="matrix(-0.942374 -0.334561 0.323659 -0.946174 138.51 33.0991)" stroke="white" stroke-width="3.5"/>
<line y1="-1.75" x2="28.9222" y2="-1.75" transform="matrix(-0.500999 -0.865448 0.85719 -0.515001 153 58.1299)" stroke="white" stroke-width="3.5"/>
<line y1="-1.75" x2="28.9222" y2="-1.75" transform="matrix(-0.500999 -0.865448 0.85719 -0.515001 153 112.684)" stroke="white" stroke-width="3.5"/>
<line y1="-1.75" x2="35.7962" y2="-1.75" transform="matrix(0.404946 -0.914341 0.908612 0.417641 138.504 90.8597)" stroke="white" stroke-width="3.5"/>
<line y1="-1.75" x2="34.9537" y2="-1.75" transform="matrix(0.400461 -0.916314 0.910699 0.413072 98.0807 132.531)" stroke="white" stroke-width="3.5"/>
<line y1="-1.75" x2="34.7098" y2="-1.75" transform="matrix(0.400461 -0.916314 0.910699 0.413072 98.19 78.3824)" stroke="white" stroke-width="3.5"/>
<line y1="-1.75" x2="35.7963" y2="-1.75" transform="matrix(0.404791 -0.914409 0.908685 0.417483 138.51 145.416)" stroke="white" stroke-width="3.5"/>
<line y1="-1.75" x2="43.5269" y2="-1.75" transform="matrix(-0.94239 -0.334516 0.323615 -0.946189 136.655 140.823)" stroke="white" stroke-width="3.5"/>
<line y1="-1.75" x2="43.3204" y2="-1.75" transform="matrix(-0.94239 -0.334516 0.323615 -0.946189 151.047 109.661)" stroke="white" stroke-width="3.5"/>
<line y1="-1.75" x2="44.1226" y2="-1.75" transform="matrix(-0.942374 -0.334561 0.323659 -0.946174 136.62 86.3697)" stroke="white" stroke-width="3.5"/>
<line y1="-1.75" x2="42.723" y2="-1.75" transform="matrix(-0.94239 -0.334516 0.323615 -0.946189 151.081 55.6484)" stroke="white" stroke-width="3.5"/>
<line y1="-1.75" x2="72.4551" y2="-1.75" transform="matrix(-0.946921 0.321466 -0.310894 -0.950444 135.33 32.364)" stroke="white" stroke-width="3.5"/>
<line y1="-1.75" x2="73.7069" y2="-1.75" transform="matrix(-0.948757 0.316006 -0.305576 -0.952168 96.93 18.3375)" stroke="white" stroke-width="3.5"/>
<line y1="-1.75" x2="70.4591" y2="-1.75" transform="matrix(-0.946921 0.321466 -0.310894 -0.950444 135.33 86.2764)" stroke="white" stroke-width="3.5"/>
<line y1="-1.75" x2="32.1554" y2="-1.75" transform="matrix(-0.946921 0.321466 -0.310894 -0.950444 98.789 126.066)" stroke="white" stroke-width="3.5"/>
<line y1="-1.75" x2="31.86" y2="-1.75" transform="matrix(-0.946921 0.321466 -0.310894 -0.950444 98.7844 72.1396)" stroke="white" stroke-width="3.5"/>
<line y1="-1.75" x2="73.6482" y2="-1.75" transform="matrix(-0.949514 0.313725 -0.303354 -0.952878 136.62 140.282)" stroke="white" stroke-width="3.5"/>
</svg>
